<svg width="65" height="65" viewBox="0 0 65 65" fill="none" xmlns="http://www.w3.org/2000/svg">
<g clip-path="url(#clip0_43_277)">
<path d="M32.5 64.0479C49.9234 64.0479 64.0479 49.9234 64.0479 32.5C64.0479 15.0766 49.9234 0.952148 32.5 0.952148C15.0766 0.952148 0.952148 15.0766 0.952148 32.5C0.952148 49.9234 15.0766 64.0479 32.5 64.0479Z" fill="#EAB14D"/>
<path d="M32.5 0.952148C31.9368 0.952148 31.3772 0.96751 30.8213 0.996709C47.4643 1.86938 60.6906 15.6397 60.6906 32.5C60.6906 49.3603 47.4643 63.1307 30.8214 64.0033C31.3773 64.0325 31.9368 64.0479 32.5001 64.0479C49.9236 64.0479 64.048 49.9234 64.048 32.5C64.048 15.0766 49.9234 0.952148 32.5 0.952148Z" fill="#E49542"/>
<path d="M32.5 57.0836C46.0771 57.0836 57.0835 46.0772 57.0835 32.5C57.0835 18.9229 46.0771 7.91644 32.5 7.91644C18.9228 7.91644 7.91638 18.9229 7.91638 32.5C7.91638 46.0772 18.9228 57.0836 32.5 57.0836Z" fill="#F4FBFF"/>
<path d="M32.5 7.91644C31.8191 7.91644 31.1452 7.94539 30.4784 7.99972C43.1097 9.02804 53.0404 19.6037 53.0404 32.5C53.0404 45.3963 43.1097 55.972 30.4784 57.0003C31.1453 57.0547 31.8193 57.0836 32.5 57.0836C46.0771 57.0836 57.0836 46.0772 57.0836 32.5C57.0836 18.9229 46.0771 7.91644 32.5 7.91644Z" fill="#DAF1F4"/>
<path d="M32.5 35.0414C33.9035 35.0414 35.0413 33.9036 35.0413 32.5C35.0413 31.0965 33.9035 29.9587 32.5 29.9587C31.0964 29.9587 29.9586 31.0965 29.9586 32.5C29.9586 33.9036 31.0964 35.0414 32.5 35.0414Z" fill="#365E7D"/>
<path d="M32.5 15.4828C33.0258 15.4828 33.4521 15.0565 33.4521 14.5307V13.1332C33.4521 12.6073 33.0258 12.181 32.5 12.181C31.9742 12.181 31.5479 12.6073 31.5479 13.1332V14.5307C31.5479 15.0565 31.9742 15.4828 32.5 15.4828Z" fill="black"/>
<path d="M46.8162 18.1538C46.4443 17.782 45.8414 17.7818 45.4697 18.1538L44.4815 19.1419C44.1095 19.5137 44.1095 20.1166 44.4814 20.4885C44.6674 20.6743 44.911 20.7674 45.1547 20.7674C45.3984 20.7674 45.6421 20.6745 45.828 20.4886L46.8162 19.5004C47.1879 19.1286 47.1879 18.5257 46.8162 18.1538Z" fill="black"/>
<path d="M50.3658 31.548C49.8399 31.548 49.4137 31.9743 49.4137 32.5001C49.4137 33.026 49.8399 33.4523 50.3658 33.4523H51.7633C52.2893 33.4523 52.7155 33.0261 52.7155 32.5001C52.7155 31.9742 52.2893 31.548 51.7633 31.548H50.3658Z" fill="black"/>
<path d="M45.7545 44.4813C45.3825 44.1096 44.7798 44.1096 44.4079 44.4813C44.0361 44.8533 44.0361 45.4561 44.4079 45.8279L45.396 46.816C45.582 47.0018 45.8257 47.0948 46.0694 47.0948C46.313 47.0948 46.5567 47.0018 46.7427 46.816C47.1146 46.444 47.1146 45.8412 46.7427 45.4694L45.7545 44.4813Z" fill="black"/>
<path d="M31.4441 50.366V51.7635C31.4441 52.2894 31.8704 52.7156 32.3962 52.7156C32.9221 52.7156 33.3484 52.2894 33.3484 51.7635V50.366C33.3484 49.84 32.9222 49.4138 32.3962 49.4138C31.8703 49.4138 31.4441 49.84 31.4441 50.366Z" fill="black"/>
<path d="M19.0685 44.4079L18.0803 45.396C17.7084 45.7679 17.7084 46.3708 18.0803 46.7425C18.2661 46.9285 18.5099 47.0214 18.7535 47.0214C18.9971 47.0214 19.2409 46.9285 19.4267 46.7426L20.4149 45.7545C20.7868 45.3827 20.7868 44.7798 20.4149 44.4081C20.0432 44.0362 19.4403 44.0363 19.0685 44.4079Z" fill="black"/>
<path d="M13.1331 31.4443C12.6072 31.4443 12.1809 31.8706 12.1809 32.3964C12.1809 32.9224 12.6072 33.3486 13.1331 33.3486H14.5306C15.0564 33.3486 15.4827 32.9224 15.4827 32.3964C15.4827 31.8706 15.0564 31.4443 14.5306 31.4443H13.1331Z" fill="black"/>
<path d="M20.4885 19.0686L19.5003 18.0804C19.1283 17.7086 18.5257 17.7087 18.1537 18.0804C17.7819 18.4523 17.782 19.0552 18.1537 19.427L19.1419 20.4151C19.3279 20.6011 19.5715 20.694 19.8152 20.694C20.0588 20.694 20.3025 20.6011 20.4885 20.4151C20.8604 20.0432 20.8602 19.4405 20.4885 19.0686Z" fill="black"/>
<path d="M35.0515 34.8827L41.8336 38.3701C42.3041 38.612 42.8766 38.4236 43.1158 37.9587C43.3564 37.491 43.1721 36.9171 42.7045 36.6765L35.9247 33.1903C35.9696 32.967 35.9935 32.7361 35.9935 32.4999C35.9935 30.9037 34.917 29.5551 33.4523 29.1394V19.4343C33.4523 18.9084 33.026 18.4821 32.5001 18.4821C31.9743 18.4821 31.548 18.9084 31.548 19.4343V29.1394C30.3861 29.4691 29.4694 30.3859 29.1397 31.5477H24.4136C23.8877 31.5477 23.4614 31.974 23.4614 32.4999C23.4614 33.0257 23.8877 33.452 24.4136 33.452H29.1397C29.5553 34.9168 30.9039 35.9934 32.5001 35.9934C33.5061 35.9935 34.4135 35.5656 35.0515 34.8827ZM32.5 34.0892C31.6238 34.0892 30.9108 33.3764 30.9108 32.5C30.9108 31.6238 31.6236 30.9108 32.5 30.9108C33.3762 30.9108 34.0891 31.6237 34.0891 32.5C34.0892 33.3764 33.3762 34.0892 32.5 34.0892Z" fill="black"/>
<path d="M57.0836 31.5461C57.6079 31.506 58.0004 31.0484 57.9603 30.524C57.4704 24.1265 54.6047 18.1877 49.8909 13.8016C45.1525 9.39253 38.9764 6.96429 32.5 6.96429C18.4196 6.96429 6.96423 18.4195 6.96423 32.5C6.96423 46.5805 18.4196 58.0358 32.5 58.0358C45.8168 58.0358 56.9415 47.7772 57.9602 34.4763C58.0002 33.952 57.6079 33.4944 57.0834 33.4542C56.5613 33.415 56.1016 33.8065 56.0613 34.3309C55.121 46.6121 44.8491 56.1315 32.5 56.1315C19.4695 56.1315 8.86853 45.5305 8.86853 32.5C8.86853 19.4696 19.4695 8.86859 32.5 8.86859C38.4932 8.86859 44.2087 11.1157 48.5937 15.1958C52.9561 19.255 55.6082 24.7503 56.0613 30.6695C56.1016 31.1936 56.5573 31.5871 57.0836 31.5461Z" fill="black"/>
<path d="M55.481 9.51907C49.3426 3.38051 41.1812 0 32.5 0C26.2611 0 20.2004 1.77277 14.9727 5.12687C14.5302 5.41087 14.4016 5.9998 14.6856 6.44249C14.9696 6.88492 15.5584 7.01353 16.0012 6.72966C20.9212 3.57284 26.6265 1.9043 32.5 1.9043C40.6725 1.9043 48.3557 5.08676 54.1345 10.8655C59.9132 16.6443 63.0957 24.3275 63.0957 32.5C63.0957 49.4093 49.4117 63.0957 32.5 63.0957C29.4781 63.0957 26.4894 62.6544 23.6168 61.7844C23.1135 61.6318 22.5819 61.9162 22.4296 62.4197C22.2771 62.9229 22.5615 63.4543 23.0647 63.6069C26.1165 64.5313 29.291 65 32.5 65C50.4618 65 65 50.4642 65 32.5C65 23.8189 61.6194 15.6575 55.481 9.51907Z" fill="black"/>
<path d="M20.1546 60.5006C9.06801 55.6052 1.9043 44.6142 1.9043 32.5C1.9043 23.3456 5.9555 14.7465 13.019 8.90715C13.4243 8.57212 13.4813 7.97201 13.1461 7.56665C12.8112 7.16154 12.2111 7.10454 11.8056 7.43944C4.30308 13.6417 0 22.7759 0 32.5C0 45.368 7.60919 57.0427 19.3852 62.2428C19.5103 62.298 19.6409 62.3242 19.7694 62.3242C20.135 62.3242 20.4836 62.1124 20.6409 61.7563C20.8533 61.2753 20.6356 60.7132 20.1546 60.5006Z" fill="black"/>
</g>
<defs>
<clipPath id="clip0_43_277">
<rect width="65" height="65" fill="white"/>
</clipPath>
</defs>
</svg>
