<svg width="73" height="72" viewBox="0 0 73 72" fill="none" xmlns="http://www.w3.org/2000/svg">
<path d="M50.0562 51.6375H33.3612V56.97H59.2362L50.0562 51.6375Z" fill="#E7A561"/>
<path d="M48.0874 56.97H31.4037V62.3025H57.2787L48.0874 56.97Z" fill="#ECB780"/>
<path d="M48.0874 46.2938H31.4037V51.6263H46.6249L48.0874 46.2938Z" fill="#ECB780"/>
<path d="M31.4037 35.6287V40.9612H57.2787V35.6287H31.4037Z" fill="#ECB780"/>
<path d="M48.9425 35.6287V40.9612H57.3237V35.6287H48.9425Z" fill="#E7A561"/>
<path d="M44.8588 46.2938C44.129 47.9775 43.7464 49.7912 43.7338 51.6263H46.625L48.0538 46.2938H44.8588ZM44.8588 56.97C45.5399 58.5637 46.5215 60.0113 47.75 61.2337C48.1359 61.6329 48.5454 62.0086 48.9763 62.3587H57.3575L48.0875 56.97H44.8588Z" fill="#E7A561"/>
<path d="M57.1887 40.9612H33.3612V46.2937H59.2362L57.1887 40.9612Z" fill="#E7A561"/>
<path d="M43.745 51.6375C43.7576 53.4726 44.1403 55.2862 44.87 56.97H59.2925L50.0562 51.6375H43.745Z" fill="#E49542"/>
<path d="M48.9425 40.9612C48.5129 41.3087 48.1069 41.6845 47.7275 42.0862C46.5045 43.3085 45.5302 44.7565 44.8588 46.35H59.2925L57.1888 41.0175L48.9425 40.9612Z" fill="#E49542"/>
<path d="M68 51.6262C68.0022 53.7383 67.3779 55.8035 66.2062 57.5607C65.0344 59.3179 63.3678 60.688 61.4171 61.4978C59.4665 62.3076 57.3195 62.5206 55.2478 62.11C53.176 61.6993 51.2727 60.6834 49.7784 59.1907C48.2842 57.6981 47.2663 55.7958 46.8534 53.7245C46.4406 51.6532 46.6513 49.506 47.4591 47.5545C48.2668 45.603 49.6352 43.9349 51.3911 42.7613C53.1471 41.5877 55.2117 40.9612 57.3237 40.9612C60.1533 40.9612 62.8671 42.0845 64.869 44.0843C66.8708 46.084 67.997 48.7967 68 51.6262Z" fill="#ECB780"/>
<path d="M57.3237 22.6575C57.3237 25.2212 56.5633 27.7273 55.1388 29.8588C53.7142 31.9903 51.6895 33.6514 49.3207 34.632C46.9519 35.6126 44.3455 35.8686 41.8312 35.3676C39.3169 34.8666 37.0076 33.6312 35.1956 31.8176C33.3836 30.004 32.1501 27.6937 31.6513 25.1789C31.1526 22.6642 31.4108 20.058 32.3934 17.6901C33.3761 15.3221 35.0389 13.2988 37.1717 11.8761C39.3044 10.4534 41.8112 9.69523 44.3749 9.69745C47.8093 9.70341 51.1011 11.0711 53.5285 13.5006C55.9559 15.9301 57.3207 19.2231 57.3237 22.6575V22.6575Z" fill="#B9E4EF"/>
<path d="M53.5999 22.6575C53.5999 24.4847 53.058 26.2709 52.0426 27.79C51.0272 29.3091 49.584 30.493 47.8957 31.1917C46.2073 31.8904 44.3496 32.0727 42.5577 31.7154C40.7657 31.3581 39.12 30.4773 37.8287 29.1845C36.5374 27.8916 35.6587 26.2449 35.3035 24.4525C34.9484 22.6601 35.133 20.8026 35.8337 19.1151C36.5345 17.4276 37.7201 15.9859 39.2405 14.9723C40.7609 13.9588 42.5477 13.419 44.3749 13.4212C46.8226 13.4242 49.169 14.3986 50.8987 16.1304C52.6284 17.8622 53.5999 20.2098 53.5999 22.6575Z" fill="#F6F9F9"/>
<path d="M22.2237 29.25L16.1599 21.375H20.2437V12.7687C20.2814 12.2679 20.507 11.7999 20.8752 11.4584C21.2434 11.1168 21.7271 10.9271 22.2293 10.9271C22.7315 10.9271 23.2152 11.1168 23.5834 11.4584C23.9516 11.7999 24.1772 12.2679 24.2149 12.7687V21.375H28.2987L22.2237 29.25Z" fill="#DD5790"/>
<path d="M11.075 41.625L5 33.75H9.08375V25.1212C9.12147 24.6204 9.34704 24.1524 9.71526 23.8108C10.0835 23.4693 10.5672 23.2795 11.0694 23.2795C11.5716 23.2795 12.0553 23.4693 12.4235 23.8108C12.7917 24.1524 13.0173 24.6204 13.055 25.1212V33.75H17.15L11.075 41.625Z" fill="#DD5790"/>
<path d="M21.875 54L15.8113 46.125H19.895V37.4737C19.8744 37.2004 19.9105 36.9257 20.001 36.667C20.0914 36.4083 20.2343 36.171 20.4207 35.97C20.6071 35.7691 20.833 35.6087 21.0842 35.4991C21.3354 35.3895 21.6066 35.3329 21.8807 35.3329C22.1548 35.3329 22.4259 35.3895 22.6771 35.4991C22.9283 35.6087 23.1542 35.7691 23.3406 35.97C23.527 36.171 23.6699 36.4083 23.7604 36.667C23.8508 36.9257 23.8869 37.2004 23.8663 37.4737V46.125H27.95L21.875 54Z" fill="#DD5790"/>
<path d="M57.3237 40.9612C56.451 40.9724 55.5826 41.0856 54.7362 41.2987C57.0338 41.8808 59.0718 43.2125 60.5275 45.083C61.9832 46.9535 62.7736 49.256 62.7736 51.6262C62.7736 53.9965 61.9832 56.299 60.5275 58.1695C59.0718 60.04 57.0338 61.3717 54.7362 61.9537C55.5887 62.176 56.4652 62.2931 57.3462 62.3025C60.1807 62.3025 62.8991 61.1765 64.9034 59.1722C66.9077 57.1679 68.0337 54.4495 68.0337 51.615C68.0337 48.7805 66.9077 46.0621 64.9034 44.0578C62.8991 42.0535 60.1807 40.9275 57.3462 40.9275L57.3237 40.9612Z" fill="#E7A561"/>
<path d="M44.375 13.4324C43.6156 13.4332 42.8594 13.5315 42.125 13.7249C44.118 14.2237 45.8871 15.3742 47.1512 16.9937C48.4154 18.6131 49.102 20.6086 49.102 22.6631C49.102 24.7175 48.4154 26.713 47.1512 28.3325C45.8871 29.9519 44.118 31.1025 42.125 31.6012C42.8594 31.7947 43.6156 31.893 44.375 31.8937C45.6143 31.937 46.8496 31.7302 48.0073 31.2858C49.165 30.8414 50.2213 30.1685 51.1134 29.3071C52.0054 28.4456 52.7148 27.4134 53.1993 26.272C53.6838 25.1305 53.9335 23.9031 53.9335 22.6631C53.9335 21.423 53.6838 20.1957 53.1993 19.0542C52.7148 17.9127 52.0054 16.8805 51.1134 16.0191C50.2213 15.1577 49.165 14.4847 48.0073 14.0403C46.8496 13.5959 45.6143 13.3892 44.375 13.4324V13.4324Z" fill="#E7ECF1"/>
<path d="M58.4487 39.8925V35.6287C58.4487 35.3304 58.3302 35.0442 58.1192 34.8332C57.9082 34.6223 57.6221 34.5037 57.3237 34.5037H51.9687C54.531 32.86 56.4919 30.4304 57.5575 27.5788C58.6232 24.7272 58.7362 21.607 57.8798 18.6858C57.0234 15.7645 55.2435 13.1993 52.8069 11.3744C50.3702 9.54959 47.4079 8.56329 44.3637 8.56329C41.3195 8.56329 38.3572 9.54959 35.9205 11.3744C33.4838 13.1993 31.704 15.7645 30.8476 18.6858C29.9911 21.607 30.1042 24.7272 31.1698 27.5788C32.2355 30.4304 34.1963 32.86 36.7587 34.5037H31.4037C31.1053 34.5037 30.8192 34.6223 30.6082 34.8332C30.3972 35.0442 30.2787 35.3304 30.2787 35.6287V40.9612C30.2787 41.2596 30.3972 41.5457 30.6082 41.7567C30.8192 41.9677 31.1053 42.0862 31.4037 42.0862H32.2362V45.1687H31.4037C31.1053 45.1687 30.8192 45.2873 30.6082 45.4982C30.3972 45.7092 30.2787 45.9954 30.2787 46.2937V51.6262C30.2787 51.9246 30.3972 52.2108 30.6082 52.4217C30.8192 52.6327 31.1053 52.7512 31.4037 52.7512H32.2362V55.845H31.4037C31.1053 55.845 30.8192 55.9635 30.6082 56.1745C30.3972 56.3855 30.2787 56.6716 30.2787 56.97V62.3025C30.2787 62.6009 30.3972 62.887 30.6082 63.098C30.8192 63.309 31.1053 63.4275 31.4037 63.4275H57.2787C60.3255 63.4535 63.264 62.2991 65.4783 60.2061C67.6925 58.1132 69.0106 55.2442 69.1561 52.2008C69.3015 49.1574 68.2632 46.1759 66.2586 43.8813C64.2541 41.5867 61.4391 40.1572 58.4037 39.8925H58.4487ZM32.5737 22.6575C32.5759 20.3158 33.2728 18.0274 34.5761 16.0819C35.8794 14.1364 37.7305 12.6212 39.8953 11.7282C42.06 10.8352 44.441 10.6044 46.7369 11.065C49.0328 11.5257 51.1405 12.6571 52.7932 14.3161C54.4459 15.9751 55.5693 18.087 56.0212 20.3847C56.4731 22.6824 56.2333 25.0625 55.332 27.2238C54.4307 29.3851 52.9086 31.2305 50.9581 32.5264C49.0077 33.8223 46.7166 34.5104 44.3749 34.5037C41.2331 34.5037 38.22 33.2556 35.9984 31.034C33.7768 28.8124 32.5287 25.7993 32.5287 22.6575H32.5737ZM32.5737 36.7537H56.1987V39.8362H32.5737V36.7537ZM34.5312 42.0862H50.4274C49.2653 42.9291 48.2632 43.973 47.4687 45.1687H34.4862L34.5312 42.0862ZM45.6349 50.5012H32.5287V47.4187H46.3212C45.9407 48.4089 45.6947 49.4456 45.5899 50.5012H45.6349ZM34.5312 52.7512H45.6349C45.7383 53.8107 45.9843 54.8514 46.3662 55.845H34.4862L34.5312 52.7512ZM32.5737 61.1775V58.095H47.4687C48.2632 59.2907 49.2653 60.3346 50.4274 61.1775H32.5737ZM57.3799 61.1775C55.4885 61.1886 53.6364 60.6379 52.0583 59.5952C50.4802 58.5525 49.2473 57.0647 48.5157 55.3205C47.7842 53.5762 47.587 51.654 47.9492 49.7976C48.3113 47.9411 49.2165 46.234 50.55 44.8926C51.8835 43.5512 53.5853 42.6359 55.4395 42.2628C57.2938 41.8897 59.2171 42.0755 60.9657 42.7968C62.7142 43.518 64.2093 44.7422 65.2613 46.314C66.3133 47.8859 66.8749 49.7348 66.8749 51.6262C66.869 54.1556 65.8624 56.5799 64.0749 58.3695C62.2874 60.1591 59.8643 61.1686 57.3349 61.1775H57.3799Z" fill="#323853"/>
<path d="M58.6737 47.0475V46.9237C58.6737 46.6253 58.5552 46.3392 58.3442 46.1282C58.1332 45.9172 57.8471 45.7987 57.5487 45.7987C57.2504 45.7987 56.9642 45.9172 56.7532 46.1282C56.5422 46.3392 56.4237 46.6253 56.4237 46.9237H55.0175C54.8697 46.9185 54.7224 46.9425 54.584 46.9943C54.4455 47.046 54.3186 47.1246 54.2104 47.2254C53.9921 47.429 53.8635 47.711 53.8531 48.0093C53.8427 48.3077 53.9512 48.598 54.1548 48.8164C54.3584 49.0347 54.6404 49.1633 54.9387 49.1737V50.5462C54.6404 50.5462 54.3542 50.6647 54.1432 50.8757C53.9322 51.0867 53.8137 51.3728 53.8137 51.6712C53.8137 51.9696 53.9322 52.2557 54.1432 52.4667C54.3542 52.6777 54.6404 52.7962 54.9387 52.7962V54.1125C54.791 54.1176 54.6457 54.1518 54.5112 54.2132C54.3767 54.2745 54.2556 54.3617 54.1548 54.4698C53.9512 54.6882 53.8427 54.9785 53.8531 55.2768C53.8635 55.5752 53.9921 55.8572 54.2104 56.0608C54.4288 56.2644 54.7191 56.3729 55.0175 56.3624H56.4237C56.4237 56.6608 56.5422 56.947 56.7532 57.1579C56.9642 57.3689 57.2504 57.4874 57.5487 57.4874C57.8471 57.4874 58.1332 57.3689 58.3442 57.1579C58.5552 56.947 58.6737 56.6608 58.6737 56.3624V56.25C59.2749 56.0696 59.8025 55.7014 60.1791 55.1993C60.5557 54.6971 60.7614 54.0876 60.7662 53.46C60.759 52.8072 60.5376 52.1748 60.1362 51.66C60.4322 51.2881 60.6319 50.849 60.7177 50.3815C60.8034 49.914 60.7727 49.4326 60.6281 48.9799C60.4835 48.5272 60.2295 48.1171 59.8886 47.7859C59.5477 47.4547 59.1304 47.2127 58.6737 47.0812V47.0475ZM58.5162 53.4262C58.5162 53.6052 58.4451 53.7769 58.3185 53.9035C58.1919 54.0301 58.0202 54.1012 57.8412 54.1012H57.1887V52.7512H57.875C58.0481 52.7599 58.2112 52.8348 58.3306 52.9605C58.45 53.0861 58.5164 53.2529 58.5162 53.4262V53.4262ZM57.1887 50.5012V49.1625H57.875C58.054 49.1625 58.2257 49.2336 58.3523 49.3602C58.4789 49.4867 58.55 49.6584 58.55 49.8375C58.55 49.9256 58.5325 50.0128 58.4984 50.0941C58.4643 50.1754 58.4144 50.249 58.3516 50.3108C58.2888 50.3726 58.2143 50.4213 58.1324 50.4539C58.0506 50.4866 57.9631 50.5027 57.875 50.5012H57.1887Z" fill="#323853"/>
<path d="M44.3749 12.2962C42.3257 12.2962 40.3224 12.9039 38.6185 14.0424C36.9146 15.1809 35.5866 16.7991 34.8024 18.6924C34.0182 20.5856 33.813 22.6689 34.2128 24.6788C34.6126 26.6887 35.5994 28.5349 37.0484 29.984C38.4975 31.433 40.3437 32.4198 42.3535 32.8196C44.3634 33.2194 46.4467 33.0142 48.34 32.23C50.2333 31.4458 51.8515 30.1178 52.99 28.4139C54.1285 26.71 54.7362 24.7067 54.7362 22.6575C54.7332 19.9104 53.6406 17.2767 51.6981 15.3342C49.7557 13.3918 47.122 12.2992 44.3749 12.2962V12.2962ZM45.4999 30.6787V28.755C45.4999 28.4566 45.3814 28.1704 45.1704 27.9595C44.9594 27.7485 44.6733 27.63 44.3749 27.63C44.0766 27.63 43.7904 27.7485 43.5794 27.9595C43.3685 28.1704 43.2499 28.4566 43.2499 28.755V30.6787C41.5074 30.4343 39.8918 29.629 38.6476 28.3848C37.4033 27.1406 36.5981 25.525 36.3537 23.7825H38.2887C38.587 23.7825 38.8732 23.6639 39.0842 23.4529C39.2952 23.242 39.4137 22.9558 39.4137 22.6575C39.4137 22.3591 39.2952 22.0729 39.0842 21.862C38.8732 21.651 38.587 21.5325 38.2887 21.5325H36.3424C36.5887 19.7876 37.3957 18.1702 38.6417 16.9242C39.8877 15.6783 41.5051 14.8712 43.2499 14.625V16.56C43.2499 16.8583 43.3685 17.1445 43.5794 17.3554C43.7904 17.5664 44.0766 17.685 44.3749 17.685C44.6733 17.685 44.9594 17.5664 45.1704 17.3554C45.3814 17.1445 45.4999 16.8583 45.4999 16.56V14.625C47.2411 14.8729 48.8547 15.6793 50.0983 16.9229C51.3419 18.1664 52.1482 19.7801 52.3962 21.5212H50.4499C50.1516 21.5212 49.8654 21.6397 49.6544 21.8507C49.4435 22.0617 49.3249 22.3478 49.3249 22.6462C49.3249 22.9446 49.4435 23.2307 49.6544 23.4417C49.8654 23.6527 50.1516 23.7712 50.4499 23.7712H52.3849C52.1433 25.5142 51.3407 27.131 50.0985 28.3773C48.8563 29.6236 47.2421 30.4314 45.4999 30.6787V30.6787Z" fill="#323853"/>
<path d="M49.4488 17.5725C49.238 17.363 48.9529 17.2454 48.6556 17.2454C48.3584 17.2454 48.0733 17.363 47.8625 17.5725L44.375 21.0713L42.7888 19.485C42.578 19.2755 42.2929 19.1579 41.9956 19.1579C41.6984 19.1579 41.4133 19.2755 41.2025 19.485C41.0971 19.5896 41.0134 19.714 40.9563 19.8511C40.8992 19.9882 40.8698 20.1352 40.8698 20.2838C40.8698 20.4323 40.8992 20.5793 40.9563 20.7164C41.0134 20.8535 41.0971 20.9779 41.2025 21.0825L43.5763 23.4563C43.6814 23.5605 43.8061 23.643 43.9431 23.699C44.0802 23.755 44.227 23.7834 44.375 23.7825C44.5231 23.7834 44.6698 23.755 44.8069 23.699C44.944 23.643 45.0686 23.5605 45.1738 23.4563L49.4488 19.125C49.6482 18.9158 49.7595 18.6378 49.7595 18.3488C49.7595 18.0597 49.6482 17.7817 49.4488 17.5725V17.5725Z" fill="#323853"/>
<path d="M29.3112 20.8912C29.2184 20.7019 29.0743 20.5424 28.8953 20.431C28.7163 20.3196 28.5095 20.2608 28.2987 20.2612H25.3399V12.7687C25.2923 11.976 24.9438 11.2315 24.3656 10.6871C23.7875 10.1427 23.0234 9.8396 22.2293 9.8396C21.4352 9.8396 20.6711 10.1427 20.093 10.6871C19.5149 11.2315 19.1664 11.976 19.1187 12.7687V20.2499H16.1599C15.9491 20.2483 15.742 20.306 15.5624 20.4164C15.3827 20.5268 15.2377 20.6855 15.1439 20.8743C15.0501 21.0631 15.0112 21.2745 15.0317 21.4844C15.0522 21.6943 15.1313 21.8941 15.2599 22.0612L21.3349 29.9362C21.4401 30.0717 21.5749 30.1814 21.7289 30.2568C21.8829 30.3322 22.0522 30.3715 22.2237 30.3715C22.3952 30.3715 22.5645 30.3322 22.7185 30.2568C22.8725 30.1814 23.0073 30.0717 23.1124 29.9362L29.1874 22.0612C29.314 21.8966 29.3926 21.7002 29.4145 21.4937C29.4363 21.2872 29.4006 21.0786 29.3112 20.8912ZM22.2237 27.4274L18.4999 22.4999H20.2999C20.5983 22.4999 20.8845 22.3814 21.0954 22.1704C21.3064 21.9595 21.4249 21.6733 21.4249 21.3749V12.7687C21.4249 12.6564 21.4471 12.5452 21.49 12.4415C21.533 12.3378 21.596 12.2435 21.6754 12.1641C21.7548 12.0847 21.849 12.0217 21.9527 11.9788C22.0565 11.9358 22.1677 11.9137 22.2799 11.9137C22.5078 11.9137 22.7264 12.0034 22.8885 12.1634C23.0507 12.3235 23.1432 12.5409 23.1462 12.7687V21.3749C23.1462 21.6733 23.2647 21.9595 23.4757 22.1704C23.6867 22.3814 23.9728 22.4999 24.2712 22.4999H26.0712L22.2237 27.4274Z" fill="#323853"/>
<path d="M11.075 22.0049C10.2485 22.0049 9.45586 22.3333 8.87145 22.9177C8.28704 23.5021 7.95872 24.2947 7.95872 25.1212V32.6249H4.99997C4.78912 32.6245 4.5824 32.6834 4.40338 32.7948C4.22436 32.9061 4.08024 33.0656 3.98747 33.2549C3.89585 33.4438 3.85889 33.6545 3.88076 33.8632C3.90263 34.072 3.98246 34.2704 4.11122 34.4362L10.175 42.3112C10.2809 42.4489 10.4173 42.5601 10.5735 42.6362C10.7296 42.7123 10.9013 42.7513 11.075 42.7499C11.2468 42.7495 11.4162 42.7098 11.5703 42.6337C11.7243 42.5577 11.8589 42.4473 11.9637 42.3112L18.0387 34.4362C18.1668 34.2699 18.2457 34.071 18.2667 33.8622C18.2876 33.6533 18.2497 33.4428 18.1572 33.2544C18.0648 33.0659 17.9214 32.9071 17.7434 32.7959C17.5654 32.6847 17.3599 32.6255 17.15 32.6249H14.18V25.1212C14.18 24.2967 13.8532 23.5057 13.2712 22.9216C12.6892 22.3376 11.8995 22.0079 11.075 22.0049ZM14.855 34.8749L11.075 39.7799L7.24997 34.8749H9.04997C9.34834 34.8749 9.63449 34.7564 9.84547 34.5454C10.0564 34.3345 10.175 34.0483 10.175 33.7499V25.1212C10.1611 24.9999 10.173 24.8771 10.2099 24.7607C10.2468 24.6443 10.3079 24.5371 10.3892 24.446C10.4704 24.3549 10.57 24.282 10.6814 24.2321C10.7928 24.1822 10.9135 24.1564 11.0356 24.1564C11.1577 24.1564 11.2784 24.1822 11.3898 24.2321C11.5012 24.282 11.6008 24.3549 11.682 24.446C11.7633 24.5371 11.8244 24.6443 11.8613 24.7607C11.8982 24.8771 11.9101 24.9999 11.8962 25.1212V33.7499C11.8962 34.0483 12.0147 34.3345 12.2257 34.5454C12.4367 34.7564 12.7229 34.8749 13.0212 34.8749H14.855Z" fill="#323853"/>
<path d="M20.93 54.6637C21.0381 54.8117 21.1806 54.9311 21.3453 55.0115C21.51 55.0919 21.6919 55.1308 21.875 55.1249C22.0487 55.1263 22.2204 55.0873 22.3765 55.0112C22.5327 54.9351 22.6691 54.8238 22.775 54.6862L28.8388 46.8112C28.957 46.6513 29.0307 46.463 29.0524 46.2654C29.0742 46.0678 29.0431 45.8679 28.9625 45.6862C28.8698 45.4969 28.7256 45.3374 28.5466 45.226C28.3676 45.1146 28.1609 45.0558 27.95 45.0562H24.935V37.4737C24.9606 37.0495 24.899 36.6245 24.7542 36.2249C24.6095 35.8254 24.3845 35.4596 24.0931 35.1502C23.8018 34.8408 23.4502 34.5943 23.0601 34.4257C22.6699 34.2572 22.2494 34.1703 21.8244 34.1703C21.3994 34.1703 20.9789 34.2572 20.5887 34.4257C20.1986 34.5943 19.847 34.8408 19.5557 35.1502C19.2643 35.4596 19.0393 35.8254 18.8946 36.2249C18.7498 36.6245 18.6883 37.0495 18.7138 37.4737V44.9999H15.755C15.5442 44.9995 15.3375 45.0584 15.1584 45.1697C14.9794 45.2811 14.8353 45.4406 14.7425 45.6299C14.6603 45.8107 14.6274 46.01 14.6472 46.2076C14.6669 46.4052 14.7387 46.594 14.855 46.7549L20.93 54.6637ZM19.805 47.2162C20.1034 47.2162 20.3895 47.0977 20.6005 46.8867C20.8115 46.6757 20.93 46.3896 20.93 46.0912V37.4737C20.9161 37.3524 20.928 37.2296 20.965 37.1132C21.0019 36.9968 21.063 36.8896 21.1442 36.7985C21.2255 36.7074 21.3251 36.6345 21.4365 36.5846C21.5479 36.5347 21.6686 36.5089 21.7907 36.5089C21.9127 36.5089 22.0334 36.5347 22.1448 36.5846C22.2562 36.6345 22.3558 36.7074 22.4371 36.7985C22.5184 36.8896 22.5794 36.9968 22.6164 37.1132C22.6533 37.2296 22.6652 37.3524 22.6513 37.4737V46.1249C22.6513 46.4233 22.7698 46.7095 22.9808 46.9204C23.1918 47.1314 23.4779 47.2499 23.7763 47.2499H25.5763L21.875 52.1324L18.0388 47.2499L19.805 47.2162Z" fill="#323853"/>
</svg>
