<svg width="72" height="62" viewBox="0 0 72 62" fill="none" xmlns="http://www.w3.org/2000/svg">
<path d="M72.6128 30.4086L72.5986 32.7273C72.5986 33.0403 72.3994 33.3532 71.9869 33.595L33.551 55.9282C32.726 56.4119 31.3746 56.3977 30.5353 55.914L7.26331 42.4856C6.83658 42.2438 6.62317 41.9167 6.62317 41.6037L6.63741 39.285C6.63741 39.598 6.85082 39.9251 7.27755 40.167L30.5496 53.5954C31.3746 54.079 32.726 54.0932 33.551 53.6096L71.9869 31.2764C72.3994 31.0345 72.5986 30.7216 72.6128 30.4086Z" fill="#474B59"/>
<path d="M71.9769 29.5199C72.8125 30.0024 72.8169 30.7889 71.9868 31.2713L33.5573 53.6041C32.7272 54.0865 31.3783 54.0813 30.5427 53.5989L7.27422 40.1648C6.42958 39.6772 6.42523 38.9011 7.25536 38.4187L45.6849 16.0859C46.515 15.6035 47.8638 15.5982 48.7084 16.0859L71.9769 29.5199Z" fill="#5B5E71"/>
<path d="M22.4422 44.82C23.1234 45.2133 23.1451 45.853 22.4683 46.2463C21.7826 46.6448 20.6691 46.6396 19.9879 46.2463C19.2977 45.8478 19.3032 45.2133 19.9889 44.8148C20.6656 44.4215 21.752 44.4215 22.4422 44.82Z" fill="#474B59"/>
<path d="M31.4929 50.9026C31.7654 51.0599 31.7759 51.3168 31.5052 51.4742C31.2345 51.6315 30.7819 51.6315 30.5094 51.4742L25.0238 48.307C24.7422 48.1445 24.7498 47.8875 25.0205 47.7302C25.2912 47.5729 25.7257 47.5729 26.0073 47.7355L31.4929 50.9026Z" fill="#474B59"/>
<path d="M17.4065 42.7699C17.6789 42.9272 17.6894 43.1841 17.4188 43.3414C17.1481 43.4987 16.6954 43.4987 16.423 43.3414L10.9374 40.1743C10.6558 40.0117 10.6634 39.7548 10.9341 39.5975C11.2048 39.4402 11.6393 39.4402 11.9209 39.6027L17.4065 42.7699Z" fill="#474B59"/>
<path d="M63.2082 25.8432C63.3989 25.9533 63.3999 26.1316 63.2104 26.2417C63.03 26.3466 62.7222 26.3466 62.5315 26.2365L54.4029 21.5435C54.2122 21.4334 54.2112 21.2551 54.3916 21.1502C54.5812 21.0401 54.8889 21.0401 55.0797 21.1502L63.2082 25.8432Z" fill="#474B59"/>
<path d="M68.5136 30.9499L34.5976 50.6506L12.3398 37.8101L46.2558 18.0957L68.5136 30.9499Z" fill="white"/>
<path d="M56.1948 16.4171L38.7911 26.531L21.2734 16.4172L38.6772 6.30328L56.1948 16.4171Z" fill="#FED57A"/>
<path d="M56.1948 16.4171L56.14 35.7438L38.7362 45.8578L38.791 26.5311L56.1948 16.4171Z" fill="#EFAC41"/>
<path d="M38.791 26.531L38.7362 45.8577L21.2186 35.7439L21.2734 16.4172L38.791 26.531Z" fill="#F9BB4A"/>
<path d="M26.2295 30.2582L26.2515 28.2741L33.78 32.6206L33.7572 34.6046L26.2295 30.2582Z" fill="#4C7891"/>
<path d="M48.9228 12.223L31.5132 22.3285V28.1317L30.0123 25.9139L28.5448 26.5307V20.6109L45.9544 10.5054L48.9228 12.223Z" fill="#E4E8F4"/>
<path d="M54.6534 28.9197L42.1016 36.1701L42.0729 27.3436L54.6248 20.0933L54.6534 28.9197Z" fill="white"/>
<path d="M42.8958 27.5223L42.9171 35.0385L42.6243 35.2075L42.603 27.6913L42.8958 27.5223Z" fill="#5B5E71"/>
<path d="M44.5883 26.5451L44.6096 34.0613L44.3077 34.2356L44.2864 26.7194L44.5883 26.5451Z" fill="#5B5E71"/>
<path d="M44.0301 26.8673L44.0514 34.3835L43.8685 34.4891L43.8472 26.9729L44.0301 26.8673Z" fill="#5B5E71"/>
<path d="M44.9542 26.3339L44.9755 33.85L44.7925 33.9557L44.7712 26.4395L44.9542 26.3339Z" fill="#5B5E71"/>
<path d="M45.1738 26.2071L45.1951 33.7233L45.1219 33.7655L45.1006 26.2493L45.1738 26.2071Z" fill="#5B5E71"/>
<path d="M45.494 26.0222L45.5153 33.5384L45.3323 33.644L45.311 26.1278L45.494 26.0222Z" fill="#5B5E71"/>
<path d="M45.9515 25.7581L45.9728 33.2743L45.6983 33.4327L45.677 25.9166L45.9515 25.7581Z" fill="#5B5E71"/>
<path d="M46.3172 25.5469L46.3386 33.0631L46.1556 33.1687L46.1343 25.6525L46.3172 25.5469Z" fill="#5B5E71"/>
<path d="M43.5819 27.1261L43.6032 34.6423L43.0909 34.938L43.0696 27.4219L43.5819 27.1261Z" fill="#5B5E71"/>
<path d="M46.793 25.2722L46.8143 32.7884L46.5215 32.9574L46.5002 25.4412L46.793 25.2722Z" fill="#5B5E71"/>
<path d="M47.9183 24.6225L47.9396 32.1387L47.7567 32.2443L47.7354 24.7281L47.9183 24.6225Z" fill="#5B5E71"/>
<path d="M48.8422 24.0891L48.8635 31.6052L48.6805 31.7109L48.6592 24.1947L48.8422 24.0891Z" fill="#5B5E71"/>
<path d="M49.071 23.957L49.0923 31.4732L49.0191 31.5154L48.9978 23.9993L49.071 23.957Z" fill="#5B5E71"/>
<path d="M49.8395 23.5134L49.8608 31.0295L49.5955 31.1827L49.5742 23.6665L49.8395 23.5134Z" fill="#5B5E71"/>
<path d="M50.2054 23.3021L50.2268 30.8182L50.0438 30.9239L50.0225 23.4077L50.2054 23.3021Z" fill="#5B5E71"/>
<path d="M47.4791 24.876L47.5004 32.3922L46.9881 32.688L46.9668 25.1718L47.4791 24.876Z" fill="#5B5E71"/>
<path d="M50.6812 23.0274L50.7025 30.5436L50.4097 30.7126L50.3884 23.1964L50.6812 23.0274Z" fill="#5B5E71"/>
<path d="M51.8156 22.3724L51.8369 29.8886L51.6539 29.9942L51.6326 22.4781L51.8156 22.3724Z" fill="#5B5E71"/>
<path d="M53.2792 21.5274L53.3005 29.0436L53.1175 29.1492L53.0962 21.633L53.2792 21.5274Z" fill="#5B5E71"/>
<path d="M53.7366 21.2633L53.7579 28.7795L53.4835 28.9379L53.4622 21.4218L53.7366 21.2633Z" fill="#5B5E71"/>
<path d="M51.3673 22.6313L51.3886 30.1475L50.8763 30.4432L50.855 22.9271L51.3673 22.6313Z" fill="#5B5E71"/>
<path d="M48.4763 24.3004L48.4977 31.8165L48.2049 31.9855L48.1836 24.4694L48.4763 24.3004Z" fill="#5B5E71"/>
<path d="M49.3912 23.7722L49.4125 31.2883L49.2296 31.394L49.2083 23.8778L49.3912 23.7722Z" fill="#5B5E71"/>
<path d="M52.3736 22.0503L52.3949 29.5665L52.1021 29.7355L52.0808 22.2193L52.3736 22.0503Z" fill="#5B5E71"/>
<path d="M52.7394 21.839L52.7607 29.3552L52.5777 29.4608L52.5564 21.9446L52.7394 21.839Z" fill="#5B5E71"/>
<path d="M52.9589 21.7122L52.9802 29.2284L52.907 29.2706L52.8857 21.7545L52.9589 21.7122Z" fill="#5B5E71"/>
<path d="M54.1027 21.052L54.124 28.5682L53.941 28.6738L53.9197 21.1576L54.1027 21.052Z" fill="#5B5E71"/>
<g opacity="0.53">
<path opacity="0.53" d="M47.1923 25.7982C47.2128 29.1044 44.8716 33.1708 41.976 34.8547C40.7027 35.5737 39.5527 35.7173 38.6491 35.3887C38.4231 35.3065 38.1766 35.1628 37.9713 34.9986C37.1909 34.403 36.7391 33.3145 36.7186 31.8359C36.7186 28.5295 39.0597 24.4836 41.9349 22.8203C44.8305 21.1364 47.1923 22.4711 47.1923 25.7982Z" fill="#748BFD"/>
</g>
<path d="M45.6414 26.6858C45.6414 29.0272 44.0044 31.8825 41.9676 33.0627C40.9586 33.6338 40.0259 33.691 39.3597 33.3101L38.2556 32.663C38.9218 33.0436 39.8356 32.9865 40.8444 32.3965C42.8812 31.2353 44.5373 28.38 44.5182 26.0387C44.5182 24.8964 44.1186 24.078 43.4523 23.6974L44.5754 24.3445C45.2225 24.7251 45.6414 25.5438 45.6414 26.6858Z" fill="#F34858"/>
<path d="M36.7751 36.0305C36.7145 35.894 36.6255 35.7838 36.5062 35.7119L37.6225 36.3606C37.7417 36.4325 37.8308 36.5427 37.8913 36.6792C37.5565 36.4846 37.0336 36.3189 36.7751 36.0305Z" fill="#F58B13"/>
<path d="M36.5062 35.7119C36.5035 35.7103 36.5008 35.7087 36.498 35.7071L37.6143 36.3558C37.617 36.3574 37.6197 36.359 37.6224 36.3606C37.2875 36.166 36.8394 35.9093 36.5062 35.7119Z" fill="#F58B13"/>
<path d="M37.1728 34.5716C37.0629 34.5078 36.9546 34.4336 36.8496 34.3498L37.9658 34.9985C38.0708 35.0823 38.1792 35.1564 38.2891 35.2203C37.9542 35.0257 37.5077 34.7662 37.1728 34.5716Z" fill="#F58B13"/>
<path d="M38.2691 35.2094L37.1528 34.5607C37.2776 34.6332 37.4042 34.693 37.5308 34.7379L38.647 35.3866C38.5204 35.3417 38.3939 35.2819 38.2691 35.2094Z" fill="#F58B13"/>
<path d="M36.4981 35.7071L37.6143 36.3558C37.5093 36.2947 37.3898 36.2696 37.2626 36.2731L36.1464 35.6245C36.2735 35.621 36.3931 35.646 36.4981 35.7071Z" fill="#F58B13"/>
<path d="M37.2171 36.262L36.1008 35.6133L36.8467 34.3549L37.9629 35.0036L37.2171 36.262Z" fill="#4C7891"/>
<path d="M37.9629 35.0036C38.1834 35.1722 38.4153 35.3044 38.647 35.3866L37.8913 36.6792C37.8308 36.5428 37.7417 36.4325 37.6225 36.3606C37.5155 36.2961 37.393 36.2696 37.2626 36.2732L37.217 36.2621L37.9629 35.0036Z" fill="#37617B"/>
<path d="M37.2658 36.2795C37.0945 36.2795 36.9041 36.3367 36.7138 36.451C36.3902 36.6413 36.0665 36.965 35.8191 37.3837L32.3547 43.3037C31.8598 44.1414 31.8598 45.0741 32.3357 45.3785L31.2125 44.7314C30.7366 44.4268 30.7366 43.4941 31.2506 42.6566L34.696 36.7364C34.9435 36.3176 35.2671 35.9751 35.6097 35.8036C35.7811 35.6896 35.9714 35.6326 36.1427 35.6326L37.2658 36.2795Z" fill="#4C7891"/>
<path d="M36.7167 36.4449C36.904 36.3368 37.0904 36.2781 37.2626 36.2731C37.393 36.2696 37.5155 36.296 37.6225 36.3606C37.7418 36.4324 37.8308 36.5427 37.8913 36.6791C38.0809 37.1064 37.985 37.797 37.6139 38.4271L34.1436 44.3545C33.8988 44.7784 33.5814 45.0947 33.2492 45.2866C32.9314 45.47 32.5987 45.529 32.3379 45.3804C31.8595 45.0748 31.8569 44.1452 32.3609 43.3055L35.8168 37.3864C36.0669 36.9615 36.3922 36.6322 36.7167 36.4449Z" fill="#37617B"/>
<path d="M41.9393 22.8118C44.8283 21.1438 47.1906 22.4734 47.2 25.7931C47.2094 29.113 44.8625 33.1782 41.9734 34.8462C40.7106 35.5753 39.5514 35.7268 38.6454 35.3893C38.4152 35.3043 38.1833 35.1721 37.9658 34.9985C37.1958 34.3965 36.7311 33.3119 36.727 31.8397C36.7175 28.52 39.0501 24.4799 41.9393 22.8118ZM41.9683 33.0534C44.0051 31.8775 45.6465 29.0344 45.6399 26.6938C45.6333 24.37 43.9811 23.4285 41.9443 24.6044C39.9219 25.772 38.2805 28.6151 38.2871 30.939C38.2937 33.2795 39.9459 34.2211 41.9683 33.0534Z" fill="#F9607F"/>
<path d="M36.8496 31.8061C36.8496 33.2719 37.1897 34.3951 37.9701 35.0043L36.8471 34.357C36.0856 33.7479 35.6097 32.663 35.6097 31.1972C35.6097 27.866 37.9321 23.8305 40.8254 22.1554C42.2721 21.318 43.6047 21.2417 44.5564 21.7938L45.704 22.4638C44.7522 21.9117 43.4899 22.1041 42.0432 22.9415C39.1498 24.6166 36.8306 28.4749 36.8496 31.8061Z" fill="#F34858"/>
<path d="M1.72046 20.6668L10.2753 25.6383L18.8861 20.6668L10.3313 15.6953L1.72046 20.6668Z" fill="#FED57A"/>
<path d="M1.72046 20.6667L1.74739 30.1668L10.3022 35.1383L10.2753 25.6383L1.72046 20.6667Z" fill="#EFAC41"/>
<path d="M10.2753 25.6383L10.3022 35.1384L18.913 30.1669L18.8861 20.6669L10.2753 25.6383Z" fill="#F9BB4A"/>
<path d="M16.4499 27.4704L16.4391 26.4951L12.7384 28.6316L12.7496 29.6069L16.4499 27.4704Z" fill="#4C7891"/>
<path d="M15.3118 22.7282V25.6381L14.5904 25.3349L13.8527 26.4251V23.5725H13.8527L15.3118 22.7282Z" fill="#F34858"/>
<path d="M6.75415 17.7609L15.3119 22.7282L13.8528 23.5726L5.29504 18.6052L6.75415 17.7609Z" fill="#F9607F"/>
<path d="M57.7585 43.6852L64.8116 47.784L71.9107 43.6853L64.8577 39.5865L57.7585 43.6852Z" fill="#FED57A"/>
<path d="M57.7585 43.6852L57.7807 51.5175L64.8338 55.6163L64.8116 47.784L57.7585 43.6852Z" fill="#CAD0DD"/>
<path d="M64.8115 47.784L64.8337 55.6163L71.9329 51.5176L71.9107 43.6852L64.8115 47.784Z" fill="#D4DAE8"/>
<path d="M57.085 44.0747L64.8082 48.563L72.582 44.0748L64.8588 39.5865L57.085 44.0747Z" fill="#E4E8F4"/>
<path d="M57.085 44.0747L57.1093 45.9419L64.8082 50.4499V48.563L57.085 44.0747Z" fill="#D4DAE8"/>
<path d="M64.8083 48.563V50.4499L72.6065 45.942L72.5822 44.0748L64.8083 48.563Z" fill="#CAD0DD"/>
<path d="M47.3796 49.7838L54.4327 53.8825L61.5318 49.7838L54.4788 45.6851L47.3796 49.7838Z" fill="#FED57A"/>
<path d="M47.3796 49.7838L47.4018 57.6161L54.4549 61.7149L54.4327 53.8825L47.3796 49.7838Z" fill="#6EBA6E"/>
<path d="M54.4326 53.8825L54.4548 61.7149L61.554 57.6161L61.5318 49.7838L54.4326 53.8825Z" fill="#75CA75"/>
<path d="M46.7061 50.1733L54.4293 54.6615L62.2032 50.1733L54.4799 45.6851L46.7061 50.1733Z" fill="#9AD898"/>
<path d="M46.7061 50.1733L46.7304 52.0405L54.4293 56.5485V54.6616L46.7061 50.1733Z" fill="#75CA75"/>
<path d="M54.4294 54.6616V56.5485L62.2276 52.0405L62.2033 50.1733L54.4294 54.6616Z" fill="#6EBA6E"/>
<path d="M2.76257 11.99L10.2803 16.3589L17.8472 11.9901L10.3295 7.62128L2.76257 11.99Z" fill="#FED57A"/>
<path d="M2.76257 11.9901L2.78624 20.3384L10.304 24.7073L10.2803 16.3589L2.76257 11.9901Z" fill="#EFAC41"/>
<path d="M10.2803 16.3589L10.3039 24.7073L17.8709 20.3385L17.8472 11.9901L10.2803 16.3589Z" fill="#F9BB4A"/>
<path d="M15.7064 17.9688L15.6969 17.1118L12.4448 18.9893L12.4547 19.8464L15.7064 17.9688Z" fill="#4C7891"/>
<path d="M14.7063 13.8016V16.3587L14.0724 16.0923L13.4241 17.0503V14.5435H13.4241L14.7063 13.8016Z" fill="#F34858"/>
<path d="M7.18603 9.4364L14.7063 13.8016L13.4241 14.5435L5.90381 10.1784L7.18603 9.4364Z" fill="#F9607F"/>
<path d="M3.67834 4.12436L10.2847 7.96356L16.9343 4.12442L10.3279 0.285217L3.67834 4.12436Z" fill="#FED57A"/>
<path d="M3.67834 4.12439L3.69914 11.4607L10.3055 15.2999L10.2847 7.96359L3.67834 4.12439Z" fill="#EFAC41"/>
<path d="M10.2847 7.96353L10.3055 15.2998L16.9551 11.4607L16.9343 4.12439L10.2847 7.96353Z" fill="#F9BB4A"/>
<path d="M15.053 9.37838L15.0447 8.62524L12.1869 10.2751L12.1955 11.0283L15.053 9.37838Z" fill="#4C7891"/>
<path d="M14.1741 5.71631V7.96344L13.6171 7.72931L13.0474 8.57117V6.36833H13.0474L14.1741 5.71631Z" fill="#F34858"/>
<path d="M7.5655 1.88031L14.1741 5.7163L13.0473 6.36832L6.43872 2.53233L7.5655 1.88031Z" fill="#F9607F"/>
<path d="M-0.612793 50.5393L5.99358 54.3785L12.6432 50.5394L6.0368 46.7002L-0.612793 50.5393Z" fill="#FED57A"/>
<path d="M-0.612793 50.5394L-0.591994 57.8757L6.01437 61.7149L5.99358 54.3786L-0.612793 50.5394Z" fill="#EFAC41"/>
<path d="M5.99353 54.3785L6.01433 61.7148L12.6639 57.8757L12.6431 50.5394L5.99353 54.3785Z" fill="#F9BB4A"/>
<path d="M10.7619 55.7934L10.7536 55.0402L7.89575 56.6901L7.90441 57.4433L10.7619 55.7934Z" fill="#4C7891"/>
<path d="M9.883 52.1313V54.3784L9.32597 54.1443L8.75625 54.9861V52.7833H8.75623L9.883 52.1313Z" fill="#F34858"/>
<path d="M3.27436 48.2953L9.88295 52.1313L8.75617 52.7833L2.14758 48.9473L3.27436 48.2953Z" fill="#F9607F"/>
</svg>
